<?xml version="1.0" encoding="UTF-8"?> <svg xmlns="http://www.w3.org/2000/svg" width="324.756" height="375" viewBox="0 0 324.756 375"><defs><style> .cls-1,.cls-23{fill:none;stroke-miterlimit:10}.cls-1{stroke:#cdfffb}.cls-2{fill:#80454a}.cls-3{fill:#1b316a}.cls-4{fill:#3d3d5b}.cls-6{fill:#fff}.cls-7{fill:#332938}.cls-8{fill:#00e7d6}.cls-9{fill:#ff912b}.cls-13{fill:#c75450}.cls-14{fill:#ffae73}.cls-16{fill:#ff5d0d}.cls-18{fill:#6b4d44}.cls-19{fill:#a35a5f}.cls-23{stroke-width:.75px}.cls-22{fill:#1a316a}.cls-23{stroke:#ff912b}.cls-25{fill:#c6eafd}.cls-26{fill:#5cadeb}.cls-27{fill:#a8ceff}.cls-28{fill:#75a1de} </style></defs><g id="Grupo_3281" transform="translate(-887.352 -125)"><g id="Grupo_3244" transform="translate(292.251 79.666)"><path id="Línea_163" d="M0 0L0 99.438" class="cls-1" transform="translate(757.447 133.839)"></path><circle id="Elipse_82" cx="90.328" cy="90.328" r="90.328" class="cls-1" transform="translate(667.784 78.371)"></circle><path id="Trazado_4130" d="M861.57 335.864a12.367 12.367 0 0 1-16.936-4.155 12.368 12.368 0 0 1 4.156-16.936c5.8-3.514 8.838-.244 12.353 5.556 3.513 5.8 6.227 12.021.427 15.535z" class="cls-2" transform="translate(-77.095 -83.39)"></path><g id="Grupo_3244-2" transform="translate(729.969 333.273)"><path id="Trazado_4131" d="M918.133 474.761l-8.633 75.621h-60.98l.673-5.818.062-.557 3.268-28.376.262-2.277.419-3.655.813-7.064.349-3.016 1.544-13.413.443-3.851 2.188-19.01h53.508c3.912.001 6.851 5.509 6.084 11.416z" class="cls-3" transform="translate(-808.824 -463.346)"></path><path id="Trazado_4132" d="M885.3 463.346l-10.021 87.036h-84.386l2.664-23.36 1.761-15.412 4.15-36.381c.891-6.906 4.824-11.882 9.4-11.882z" class="cls-4" transform="translate(-790.893 -463.346)"></path></g><ellipse id="Elipse_83" cx="26.476" cy="25.269" class="cls-2" rx="26.476" ry="25.269" transform="rotate(-10.437 1649.115 -3815.78)"></ellipse><path id="Trazado_4133" fill="#7cbee5" d="M811.457 396.255c.849 1.821-.731 6.032 5.289 7.534 2.989.746.743 1.2 3.824 1.192 2.483 0 10.437-8.754 12.92-8.758q-2.79-15.162-5.59-30.323l-21.316 3.926z" transform="translate(-65.809 -99.75)"></path><path id="Trazado_4134" d="M789.124 354.7s-1.535-6.3-1.607-7.466a51.061 51.061 0 0 1 1.3-5.3s4.656-24.721 30.767 4.9l.783 8.021s10.266 12.391-19.61 21.386c0 0-8.734.619-12.358-15.772a37.106 37.106 0 0 1 .725-5.769z" class="cls-6" transform="translate(-59.874 -89.286)"></path><path id="Trazado_4135" d="M816.871 345.025l4.681-.862-4.021-21.832-26.515 4.884a22.2 22.2 0 0 0 25.855 17.81z" class="cls-2" transform="translate(-60.963 -86.193)"></path><g id="Grupo_3247" transform="translate(740.884 305.23)"><g id="Grupo_3245" transform="translate(14.599)"><path id="Trazado_4136" d="M827.935 443.1l10.209-8.528 1.473-1.231 11.643-9.729-.743-.979-21.891 18.286z" class="cls-7" transform="translate(-827.935 -422.635)"></path></g><g id="Grupo_3246" transform="translate(0 10.159)"><path id="Trazado_4137" d="M833.076 437.725l-.056.209-4.17 17.334-11.414 47.448v.006l-5.154 21.419-1.379 5.736-.206.841v.006l-2.784 11.576h-1.173l2.9-12.066.762-3.156 1.034-4.313 4.815-20.009 11.419-47.492 3.875-16.107.428-1.777z" class="cls-7" transform="translate(-806.74 -437.383)"></path></g></g><path id="Trazado_4138" d="M854.566 91.254a43.4 43.4 0 0 1-49.213 42.985c-.226-.03-.449-.062-.673-.1a43.375 43.375 0 0 1-36.864-42.89 43.375 43.375 0 1 1 86.75 0z" class="cls-8" transform="translate(-53.744 -.792)"></path><path id="Trazado_4139" d="M836 95.371L833.289 115h-20.048l-1.557-11.948V115h-2.843V95.371z" class="cls-4" transform="translate(-66.509 -15.57)"></path><ellipse id="Elipse_84" cx="13.585" cy="12.966" class="cls-4" rx="13.585" ry="12.966" transform="translate(742.32 67.027)"></ellipse><path id="Rectángulo_759" d="M0 0H11.121V12.945H0z" class="cls-9" transform="translate(750.345 86.487)"></path><path id="Trazado_4140" d="M822.917 93.736h-2.443V82.345h13.834a11.391 11.391 0 0 1-11.391 11.391z" class="cls-4" transform="translate(-70.129 -11.517)"></path><path id="Trazado_4141" d="M847.287 93.08l2.672 21.209h-4.43l.633-16.73z" class="cls-4" transform="translate(-77.925 -14.857)"></path><path id="Trazado_4142" d="M836.588 156.3c-6.865 4.561-3.512 1.976-12.371 1.976a43.518 43.518 0 0 1-5.838-.391c-.226-.03-.449-.062-.673-.1-5.71-.86-3.276 1.592-8.03-1.267l.64-28.307c.121-3.5 4.03-4.346 6.613-4.346H829.7c2.146 0 9.687 14.605 9.687 14.605 2.876 5.13-4.168 13.341-2.799 17.83z" class="cls-7" transform="translate(-66.769 -24.438)"></path><g id="Grupo_3248" transform="translate(750.936 120.162)"><path id="Trazado_4143" fill="#70597a" d="M823.553 154.071l-1.547 13.18c-.226-.03-.449-.062-.673-.1l1.552-13.192z" transform="translate(-821.333 -153.964)"></path></g><g id="Grupo_3249" transform="translate(712.32 45.334)"><path id="Trazado_4144" d="M810.4 135.591a45.445 45.445 0 0 1-6.073-.406q-.346-.047-.7-.1a44.674 44.674 0 0 1-16.454-5.923 45.131 45.131 0 1 1 68.35-38.7 44.832 44.832 0 0 1-13.217 31.911 45.082 45.082 0 0 1-31.91 13.217zm0-86.752a41.628 41.628 0 0 0-21.416 77.321 41.182 41.182 0 0 0 15.167 5.46q.317.048.643.091a41.844 41.844 0 0 0 5.606.375 41.624 41.624 0 0 0 0-83.247z" class="cls-6" transform="translate(-765.272 -45.334)"></path></g><g id="Grupo_3255" transform="translate(770.105 48.137)"><g id="Grupo_3250"><circle id="Elipse_85" cx="18.026" cy="18.026" r="18.026" fill="#eb9000" transform="matrix(.151 -.989 .989 .151 0 35.638)"></circle><path id="Trazado_4145" d="M870.331 89.726a19.153 19.153 0 1 1 19.153-19.152 19.174 19.174 0 0 1-19.153 19.152zm0-36.052a16.9 16.9 0 1 0 16.9 16.9 16.918 16.918 0 0 0-16.9-16.9z" class="cls-6" transform="translate(-849.789 -50.031)"></path></g><g id="Grupo_3254" transform="translate(11.28 18.723)"><g id="Grupo_3251"><circle id="Elipse_86" cx="1.819" cy="1.819" r="1.819" class="cls-6"></circle></g><g id="Grupo_3252" transform="translate(7.443)"><circle id="Elipse_87" cx="1.819" cy="1.819" r="1.819" class="cls-6"></circle></g><g id="Grupo_3253" transform="translate(14.887)"><circle id="Elipse_88" cx="1.819" cy="1.819" r="1.819" class="cls-6"></circle></g></g></g><path id="Trazado_4146" d="M1009.739 203.867a42 42 0 0 1-12.339 29.787l-.4.4q-1.16 1.131-2.407 2.169a42.041 42.041 0 0 1-10.463 6.41q-.78.333-1.577.635a42.176 42.176 0 0 1-44.478-9.373l-.243-.24a42.124 42.124 0 1 1 71.91-29.787z" class="cls-8" transform="translate(-102.808 -36.223)"></path><path id="Trazado_4147" d="M980.88 193.941c.763-2.27.293-2.682-.207-3.621a9.343 9.343 0 0 0-6.282-2.883c-4.36 0-8.186 5.019-8.186 9.9s2.885 13.029 7.246 13.029 10.184-8.673 10.184-13.558a7.747 7.747 0 0 0-.249-1.91 2 2 0 0 0-2.506-.957z" class="cls-7" transform="translate(-115.476 -44.218)"></path><path id="Trazado_4148" d="M975.391 186.158c3.257 2.007 4.283 4.686 3.257 5.58s-4.944-.016-6.972-2.345-2.84-4.942-1.814-5.834 2.899.979 5.529 2.599z" class="cls-7" transform="translate(-116.476 -42.939)"></path><path id="Trazado_4149" d="M965.819 185.258c2.725 1.453 4.415 3.6 3.775 4.8s-5.077 2-7.8.546a4.6 4.6 0 0 1-2.065-5.806c.637-1.198 3.365-.992 6.09.46z" class="cls-7" transform="translate(-113.35 -43.155)"></path><path id="Trazado_4150" d="M960.9 191.955c3.079.24 5.489 1.533 5.384 2.889s-2.686 2.261-5.766 2.022-5.489-1.532-5.384-2.888 2.691-2.262 5.766-2.023z" class="cls-7" transform="translate(-112.031 -45.612)"></path><path id="Trazado_4151" fill="#663feb" d="M990.562 263.545c-1.894.782-3.793 1.416-4.325 1.617-4.641 1.76-7.245 1.889-12.505 1.889-11.509 0-18.566-.728-28.582-13.54l1.348-20.733 14.591-3.351h11.62l14.925 3.915 3.448 19.028c-.4 3.115-1.745 5.8-1.3 8.161z" transform="translate(-108.925 -57.284)"></path><path id="Rectángulo_760" d="M0 0H11.619V13.523H0z" class="cls-9" transform="rotate(180 431.888 86.072)"></path><path id="Rectángulo_761" d="M0 0h4.751v8.677A4.751 4.751 0 0 1 0 3.926V0z" class="cls-7" transform="rotate(180 432.549 78.42)"></path><path id="Trazado_4152" d="M960.047 205.858v4.4a1.725 1.725 0 0 0 .5.076 2.291 2.291 0 0 0 0-4.547 1.727 1.727 0 0 0-.5.071z" class="cls-13" transform="translate(-113.56 -49.927)"></path><path id="Trazado_4153" d="M971.793 208.095a2.409 2.409 0 1 0 2.408-2.409 2.409 2.409 0 0 0-2.408 2.409z" class="cls-13" transform="translate(-117.215 -49.897)"></path><g id="Grupo_3257" transform="translate(847.92 155.318)"><path id="Trazado_4154" d="M963.661 213.573l5.372-.258s-3.79 3.985-5.372.258z" class="cls-6" transform="translate(-962.605 -207.588)"></path><circle id="Elipse_89" cx=".761" cy=".761" r=".761" class="cls-7" transform="translate(6.657)"></circle><circle id="Elipse_90" cx=".761" cy=".761" r=".761" class="cls-7"></circle><g id="Grupo_3256" transform="translate(2.504 2.81)"><path id="Trazado_4155" d="M966.422 210.6a.688.688 0 0 1-.654-.765v-.749h.608l.023.884h.025l.087.019h1.43v.608h-1.43a.4.4 0 0 1-.089.003z" class="cls-7" transform="translate(-965.763 -209.081)"></path></g></g><path id="Trazado_4156" d="M968.29 229.428h11.619s-3.5 4.59-6.8 4.59-4.819-4.59-4.819-4.59z" class="cls-9" transform="translate(-116.125 -57.284)"></path><path id="Trazado_4157" d="M1009.489 265.718l5.16-24.321 4.193.666-2.39 21.764-4.949 2.446z" class="cls-14" transform="translate(-128.945 -61.009)"></path><path id="Trazado_4158" d="M1008.8 265.1l-3.25-15.635-8.58 1.116 4.525 20.712 1.313.3 3.852-2.127 2.689-1.777z" class="cls-14" transform="translate(-125.049 -63.518)"></path><path id="Trazado_4159" d="M945.817 249.5l5.536 1.271 1.135 14.81-5.69-1.147-1.649-3.391v-1.281z" class="cls-14" transform="translate(-108.925 -63.529)"></path><path id="Trazado_4160" fill="#72cdfb" d="M999.461 262.486v13.151l2.994-.725z" transform="translate(-125.825 -67.571)"></path><path id="Rectángulo_762" d="M0 0h3.983v6.165A3.983 3.983 0 0 1 0 2.181V0z" class="cls-7" transform="translate(857.057 145.716)"></path><g id="Grupo_3258" transform="translate(820.982 123.819)"><path id="Trazado_4161" d="M966.846 246.924a43.562 43.562 0 0 1-30.736-12.586l-.253-.249a43.825 43.825 0 1 1 61.979 0c-.142.143-.284.283-.428.422-.795.774-1.638 1.535-2.5 2.251a43.672 43.672 0 0 1-10.884 6.667c-.558.238-1.111.461-1.643.662a43.661 43.661 0 0 1-15.535 2.833zm0-84.247a40.422 40.422 0 0 0-28.582 69q.115.115.231.227a40.472 40.472 0 0 0 42.683 9c.489-.185 1-.39 1.513-.61a40.283 40.283 0 0 0 10.038-6.151c.8-.662 1.572-1.361 2.31-2.081.136-.132.263-.257.39-.384a40.422 40.422 0 0 0-28.584-69z" class="cls-6" transform="translate(-923.021 -159.273)"></path></g><g id="Grupo_3264" transform="translate(882.657 130.621)"><g id="Grupo_3259"><circle id="Elipse_91" cx="17.506" cy="17.506" r="17.506" class="cls-16" transform="translate(1.094 1.094)"></circle><path id="Trazado_4162" d="M1031.156 206.347a18.6 18.6 0 1 1 18.6-18.6 18.621 18.621 0 0 1-18.6 18.6zm0-35.011a16.411 16.411 0 1 0 16.412 16.411 16.43 16.43 0 0 0-16.412-16.411z" class="cls-6" transform="translate(-1012.557 -169.148)"></path></g><g id="Grupo_3263" transform="translate(9.604 16.832)"><g id="Grupo_3260"><path id="Trazado_4163" d="M1030.033 195.351a1.766 1.766 0 1 1-1.766-1.767 1.766 1.766 0 0 1 1.766 1.767z" class="cls-6" transform="translate(-1026.5 -193.584)"></path></g><g id="Grupo_3261" transform="translate(7.229)"><path id="Trazado_4164" d="M1040.527 195.351a1.767 1.767 0 1 1-1.766-1.767 1.766 1.766 0 0 1 1.766 1.767z" class="cls-6" transform="translate(-1036.994 -193.584)"></path></g><g id="Grupo_3262" transform="translate(14.457)"><circle id="Elipse_92" cx="1.767" cy="1.767" r="1.767" class="cls-6"></circle></g></g></g><path id="Trazado_4165" d="M687.088 196.483a44.678 44.678 0 0 1-44.688 44.683q-.9 0-1.788-.037c-.318-.012-.636-.027-.954-.048q-.331-.019-.658-.045a44.531 44.531 0 0 1-7.5-1.21q-.622-.155-1.236-.329c-.223-.062-.445-.127-.667-.193-.254-.077-.509-.154-.762-.236-.273-.088-.543-.175-.813-.268l-.317-.108c-.576-.2-1.145-.413-1.709-.634a44.674 44.674 0 0 1-13.723-8.576q-.751-.686-1.47-1.4a44.684 44.684 0 1 1 76.279-31.6z" class="cls-8" transform="translate(-.816 -33.129)"></path><path id="Trazado_4166" d="M676.349 259.686a44.5 44.5 0 0 1-27.369 9.36q-.9 0-1.788-.037c-.318-.012-.637-.027-.954-.048q-.331-.019-.659-.045a44.533 44.533 0 0 1-7.5-1.21q-.622-.155-1.236-.329c-.223-.062-.445-.127-.667-.193-.254-.077-.509-.154-.762-.236-.273-.087-.543-.175-.813-.268l-.317-.108c-.576-.2-1.145-.413-1.709-.634a44.672 44.672 0 0 1-13.723-8.576c1.165-1.384 8.475-14.32 10.048-15.3l13.742-.521h11.132l15.813-.145z" class="cls-16" transform="translate(-7.391 -61.009)"></path><path id="Trazado_4167" fill="#fbc57e" d="M652.009 241.608h14.884s-2.425 7.23-6.8 7.167-11.146-7.051-11.146-7.051z" transform="translate(-16.755 -61.074)"></path><ellipse id="Elipse_93" cx="20.344" cy="19.417" class="cls-7" rx="20.344" ry="19.417" transform="translate(619.189 136.722)"></ellipse><path id="Rectángulo_763" d="M0 0H11.132V12.956H0z" class="cls-18" transform="translate(635.254 167.577)"></path><path id="Trazado_4168" d="M664.908 226.109l-10.925-1.9V212.56a7.9 7.9 0 0 1 8.077-7.709 7.9 7.9 0 0 1 8.077 7.709v9.181c0 3.187-2.251 4.936-5.229 4.368z" class="cls-19" transform="translate(-18.322 -49.637)"></path><path id="Rectángulo_764" d="M0 0H4.552V13.001H0z" class="cls-7" transform="translate(634.9 152.339)"></path><path id="Trazado_4169" d="M643.816 278.4c-.223-.062-.445-.127-.667-.193-.254-.077-.509-.154-.762-.236-.273-.087-.543-.175-.813-.268l-.317-.108.683-.277.446-.179.782-.314.012-.006z" class="cls-19" transform="translate(-14.363 -72.032)"></path><path id="Trazado_4170" d="M653.392 241.608h11.132s-.612 3.893-3.773 3.893-7.359-3.893-7.359-3.893z" class="cls-18" transform="translate(-18.138 -61.074)"></path><g id="Grupo_3265" transform="translate(595.101 116.865)"><path id="Trazado_4171" d="M641.589 242.155c-.625 0-1.251-.012-1.862-.037-.329-.012-.663-.029-1-.05-.217-.012-.452-.028-.685-.047a46.4 46.4 0 0 1-7.794-1.259c-.414-.1-.848-.218-1.287-.342-.223-.062-.451-.129-.68-.2l-.074-.022c-.246-.075-.491-.149-.735-.228-.287-.092-.569-.183-.851-.28l-.318-.11c-.566-.2-1.148-.412-1.78-.661A46.305 46.305 0 0 1 610.246 230c-.523-.478-1.037-.97-1.529-1.461a46.488 46.488 0 1 1 65.745 0 46.889 46.889 0 0 1-4.4 3.877 46.046 46.046 0 0 1-28.473 9.739zm0-89.366a42.878 42.878 0 0 0-30.319 73.2c.453.454.928.907 1.411 1.349a42.7 42.7 0 0 0 13.168 8.229c.583.229 1.119.428 1.637.608l.3.1c.268.092.526.176.787.26.227.072.457.143.687.213l.05.015c.2.059.411.121.623.179q.616.174 1.19.316a42.761 42.761 0 0 0 7.2 1.162c.211.017.417.032.622.043.32.021.622.035.924.047.566.023 1.143.034 1.719.034a42.464 42.464 0 0 0 26.262-8.981 43.031 43.031 0 0 0 4.058-3.578 42.878 42.878 0 0 0-30.32-73.2z" class="cls-6" transform="translate(-595.101 -149.178)"></path></g><g id="Grupo_3271" transform="translate(653.346 121.038)"><g id="Grupo_3266"><circle id="Elipse_94" cx="18.569" cy="18.569" r="18.569" fill="#00c3ad" transform="rotate(-45 31.7 13.13)"></circle><path id="Trazado_4172" d="M708.868 204.177a19.729 19.729 0 1 1 19.73-19.73 19.752 19.752 0 0 1-19.73 19.73zm0-37.138a17.409 17.409 0 1 0 17.409 17.409 17.429 17.429 0 0 0-17.409-17.409z" class="cls-6" transform="translate(-682.608 -158.187)"></path></g><g id="Grupo_3270" transform="translate(16.719 24.387)"><g id="Grupo_3267"><path id="Trazado_4173" d="M707.677 192.514a1.874 1.874 0 1 1-1.874-1.874 1.874 1.874 0 0 1 1.874 1.874z" class="cls-6" transform="translate(-703.929 -190.64)"></path></g><g id="Grupo_3268" transform="translate(7.668)"><path id="Trazado_4174" d="M718.809 192.514a1.874 1.874 0 1 1-1.874-1.874 1.874 1.874 0 0 1 1.874 1.874z" class="cls-6" transform="translate(-715.061 -190.64)"></path></g><g id="Grupo_3269" transform="translate(15.335)"><path id="Trazado_4175" d="M729.94 192.514a1.874 1.874 0 1 1-1.874-1.874 1.874 1.874 0 0 1 1.874 1.874z" class="cls-6" transform="translate(-726.192 -190.64)"></path></g></g></g><path id="Trazado_4176" fill="none" stroke="#7cbee5" stroke-miterlimit="10" stroke-width="0.75px" d="M794.054 355.5s3.317 3.614 3.907 6.571c0 0-2.966 4.944-3.136 6.076-.34 2.266 3.357 1.594 3.357 1.594" transform="translate(-61.908 -96.513)"></path><path id="Trazado_4177" d="M808.991 362.872l-.132-1.668a7.9 7.9 0 0 1 5.923 2.146z" class="cls-22" transform="translate(-66.515 -98.279)"></path><path id="Trazado_4178" d="M791.828 361.309l-.027-1.743s2.133-.489 4.342 2.242z" class="cls-22" transform="translate(-61.207 -97.769)"></path><g id="Grupo_3272" transform="translate(738.239 229.616)"><ellipse id="Elipse_95" cx="5.752" cy="8.385" class="cls-3" rx="5.752" ry="8.385" transform="translate(19.87 25.79)"></ellipse><ellipse id="Elipse_96" cx="4.095" cy="6.24" class="cls-3" rx="4.095" ry="6.24" transform="translate(23.185 27.935)"></ellipse><path id="Trazado_4179" d="M829.942 371.542s-4.72 11.393-20.231 9.7l.061 1.764s15.668 2.094 21.554-10z" class="cls-3" transform="translate(-805.019 -331.122)"></path><path id="Trazado_4180" d="M808.647 385.963c-.1 1.4-1.159 1.873-3.1 1.734s-2.738-.747-2.639-2.143.774-1.7 2.717-1.566 3.122.579 3.022 1.975z" class="cls-3" transform="translate(-802.899 -334.985)"></path><path id="Trazado_4181" d="M831.923 338.828s3.141-20.076-14.025-25.23c0 0 1.4-1.325 6.328-.419 0 0 14.13 2.073 10.224 25.649l-1.555 1.068z" class="cls-3" transform="translate(-807.566 -312.863)"></path></g><path id="Trazado_4182" d="M961.01 196.906s-1.734 2.189-1.732 2.829.383 2.069.442 2.815a4.556 4.556 0 0 1-.356 1.558 3.671 3.671 0 0 0-.173 1.885l1.533 9s14.09 3 14.726-8l-5.042-10.087z" class="cls-14" transform="translate(-113.277 -47.165)"></path><path id="Trazado_4183" d="M669.58 208.45s1.731 2.241 1.729 2.9-.383 2.117-.442 2.881a4.77 4.77 0 0 0 .355 1.595 3.846 3.846 0 0 1 .173 1.929l-1.53 9.208s-14.065 3.069-14.7-8.183l.823-10.326z" class="cls-19" transform="translate(-18.691 -50.757)"></path><path id="Trazado_4184" d="M984.47 205.552a.355.355 0 0 0-.114-.093 1.984 1.984 0 0 0-1.613-.119 5.743 5.743 0 0 0-1.019.6l-.358.5c-.4.8-.944 1.1-1.048 1.951l1.179-.151c.09-.194-.154-.148 0 0a2.721 2.721 0 0 0 2.33.251.352.352 0 0 0 .125-.076c.288-.279 1.535-1.58.518-2.863z" class="cls-14" transform="translate(-119.868 -49.75)"></path><path id="Trazado_4185" d="M1017.5 236.947a12.266 12.266 0 0 1-2.4-1.6 12.49 12.49 0 0 1 0-3.627 6.9 6.9 0 0 0-.15-1.576c-.187-.955 2.022-.716 1.694 2.589l2.337-7.592s9.443-2.6 1.556 11.809z" class="cls-14" transform="translate(-130.641 -55.893)"></path><path id="Trazado_4186" d="M838.138 97.689s.409-3.134.382-3.7a25.012 25.012 0 0 0-.91-2.5s-3.905-11.264-14.99 4.484l-.2 3.451s-3.74 6.56 11.223 9.333c0 0 4.267-.165 5.153-8.3a18.113 18.113 0 0 0-.658-2.768z" class="cls-14" transform="translate(-70.606 -13.146)"></path><path id="Trazado_4187" d="M817.941 99.356a.494.494 0 0 1 .16-.132 2.8 2.8 0 0 1 2.272-.167 8.005 8.005 0 0 1 1.436.842l.5.7c.564 1.12 1.33 1.551 1.476 2.748l-1.662-.213c-.125-.273.216-.208 0 0a3.83 3.83 0 0 1-3.282.353.5.5 0 0 1-.176-.108c-.401-.379-2.156-2.215-.724-4.023z" class="cls-14" transform="translate(-69.169 -16.663)"></path><path id="Trazado_4188" d="M669.952 207.27s-6.5-5.877-13.591 0z" class="cls-19" transform="translate(-19.062 -49.577)"></path><path id="Trazado_4189" d="M650.951 216.75a.4.4 0 0 1 .163-.043 2.272 2.272 0 0 1 1.735.648 6.463 6.463 0 0 1 .774 1.11l.135.686c.037 1.019.456 1.6.157 2.531l-1.155-.721c0-.245.231-.081 0 0a3.117 3.117 0 0 1-2.545-.854.405.405 0 0 1-.093-.139c-.168-.42-.842-2.368.829-3.218z" class="cls-19" transform="translate(-17.035 -53.325)"></path><path id="Trazado_4190" d="M842.366 98a10.037 10.037 0 0 0-2.164 3.64 23.149 23.149 0 0 1 1.738 3.36c.188 1.255-1.86.882-1.86.882" class="cls-23" transform="translate(-76.23 -16.387)"></path><path id="Trazado_4191" d="M833.644 102.083l.073-.924a4.374 4.374 0 0 0-3.281 1.189z" class="cls-22" transform="translate(-73.229 -17.365)"></path><path id="Trazado_4192" d="M843.546 101.216l.014-.966s-1.181-.271-2.4 1.243z" class="cls-22" transform="translate(-76.565 -17.082)"></path><path id="Trazado_4193" d="M970 204.681l-.15-.911a4.36 4.36 0 0 1 3.359.9z" class="cls-22" transform="translate(-116.611 -49.283)"></path><path id="Trazado_4194" d="M961.488 204.632l-.1-.958s1.15-.369 2.494 1.03z" class="cls-22" transform="translate(-113.979 -49.257)"></path><path id="Trazado_4195" d="M963.773 202.866l.35 1.788-1.989 5.409 2.545-.079" class="cls-23" transform="translate(-114.209 -49.019)"></path><path id="Trazado_4196" d="M666.092 216.14l.151-.911a4.363 4.363 0 0 0-3.359.9z" class="cls-22" transform="translate(-21.092 -52.849)"></path><path id="Trazado_4197" d="M675 216.092l.1-.957s-1.15-.369-2.494 1.03z" class="cls-22" transform="translate(-24.115 -52.823)"></path><path id="Trazado_4198" fill="none" stroke="#6b4d44" stroke-miterlimit="10" stroke-width="0.75px" d="M672.69 214.326l-.35 1.788 1.989 5.41-2.545-.079" transform="translate(-23.861 -52.585)"></path><path id="Trazado_4199" d="M678.508 363.8s20.215 39.54 79.592 16.278" class="cls-1" transform="translate(-25.954 -99.097)"></path><g id="Grupo_3274" transform="translate(812.977 240.322)"><path id="Rectángulo_765" d="M11.061 0h70.023a11.06 11.06 0 0 1 11.06 11.06v11.853a11.06 11.06 0 0 1-11.06 11.06H11.061A11.061 11.061 0 0 1 0 22.913V11.061A11.061 11.061 0 0 1 11.061 0z" class="cls-6"></path><g id="Grupo_3273" transform="translate(9.325 6.736)"><path id="Trazado_4200" d="M946.756 349.091a10.91 10.91 0 1 1-10.912-10.908 10.868 10.868 0 0 1 10.912 10.908z" class="cls-25" transform="translate(-924.937 -338.183)"></path><circle id="Elipse_97" cx="3.952" cy="3.952" r="3.952" class="cls-26" transform="translate(6.957 4.396)"></circle><path id="Trazado_4201" d="M945.268 362.225a10.9 10.9 0 0 1-16.389 0 9.237 9.237 0 0 1 16.389 0z" class="cls-26" transform="translate(-926.164 -344.117)"></path></g><path id="Trazado_4202" d="M1002.729 344.455h-36.791a1.81 1.81 0 0 1-1.81-1.81 1.81 1.81 0 0 1 1.81-1.81h36.791a1.81 1.81 0 0 1 1.81 1.81 1.81 1.81 0 0 1-1.81 1.81z" class="cls-25" transform="translate(-927.807 -332.272)"></path><path id="Trazado_4203" d="M1002.729 354.057h-36.791a1.81 1.81 0 0 1-1.81-1.81 1.81 1.81 0 0 1 1.81-1.81h36.791a1.81 1.81 0 0 1 1.81 1.81 1.81 1.81 0 0 1-1.81 1.81z" class="cls-25" transform="translate(-927.807 -335.261)"></path><path id="Trazado_4204" d="M990.873 363.66h-24.935a1.81 1.81 0 0 1-1.81-1.811 1.81 1.81 0 0 1 1.81-1.81h24.935a1.811 1.811 0 0 1 1.81 1.81 1.811 1.811 0 0 1-1.81 1.811z" class="cls-25" transform="translate(-927.807 -338.248)"></path></g><g id="Grupo_3276" transform="translate(700.032 153.526)"><rect id="Rectángulo_766" width="114.93" height="42.374" class="cls-6" rx="11.06"></rect><g id="Grupo_3275" transform="translate(11.631 8.401)"><path id="Trazado_4205" d="M791.532 228.2a13.607 13.607 0 1 1-13.609-13.6 13.551 13.551 0 0 1 13.609 13.6z" class="cls-25" transform="translate(-764.318 -214.597)"></path><circle id="Elipse_98" cx="4.929" cy="4.929" r="4.929" class="cls-26" transform="translate(8.677 5.483)"></circle><path id="Trazado_4206" d="M789.676 244.584a13.6 13.6 0 0 1-20.441 0 11.522 11.522 0 0 1 20.441 0z" class="cls-26" transform="translate(-765.848 -221.998)"></path></g><path id="Trazado_4207" d="M861.347 222.419h-45.889a2.258 2.258 0 0 1-2.258-2.258 2.258 2.258 0 0 1 2.258-2.257h45.889a2.258 2.258 0 0 1 2.258 2.257 2.258 2.258 0 0 1-2.258 2.258z" class="cls-25" transform="translate(-767.898 -207.225)"></path><path id="Trazado_4208" d="M861.347 234.4h-45.889a2.258 2.258 0 0 1-2.258-2.258 2.258 2.258 0 0 1 2.258-2.258h45.889a2.258 2.258 0 0 1 2.258 2.258 2.258 2.258 0 0 1-2.258 2.258z" class="cls-25" transform="translate(-767.898 -210.952)"></path><path id="Trazado_4209" d="M846.559 246.374h-31.1a2.258 2.258 0 0 1-2.258-2.258 2.258 2.258 0 0 1 2.258-2.258h31.1a2.257 2.257 0 0 1 2.258 2.258 2.258 2.258 0 0 1-2.258 2.258z" class="cls-25" transform="translate(-767.898 -214.679)"></path></g><g id="Grupo_3278" transform="translate(610.27 239.663)"><rect id="Rectángulo_767" width="92.144" height="33.973" class="cls-6" rx="11.06"></rect><g id="Grupo_3277" transform="translate(9.325 6.735)"><path id="Trazado_4210" d="M652.479 348.135a10.91 10.91 0 1 1-10.912-10.908 10.868 10.868 0 0 1 10.912 10.908z" class="cls-25" transform="translate(-630.66 -337.227)"></path><circle id="Elipse_99" cx="3.952" cy="3.952" r="3.952" class="cls-26" transform="rotate(-76.659 10.211 1.75)"></circle><path id="Trazado_4211" d="M650.991 361.269a10.9 10.9 0 0 1-16.389 0 9.237 9.237 0 0 1 16.389 0z" class="cls-26" transform="translate(-631.887 -343.161)"></path></g><path id="Trazado_4212" d="M708.452 343.5h-36.791a1.81 1.81 0 0 1-1.81-1.81 1.81 1.81 0 0 1 1.81-1.811h36.791a1.81 1.81 0 0 1 1.81 1.811 1.81 1.81 0 0 1-1.81 1.81z" class="cls-25" transform="translate(-633.53 -331.317)"></path><path id="Trazado_4213" d="M708.452 353.1h-36.791a1.81 1.81 0 0 1-1.81-1.81 1.81 1.81 0 0 1 1.81-1.81h36.791a1.81 1.81 0 0 1 1.81 1.81 1.81 1.81 0 0 1-1.81 1.81z" class="cls-25" transform="translate(-633.53 -334.305)"></path><path id="Trazado_4214" d="M696.6 362.7h-24.939a1.81 1.81 0 0 1-1.81-1.81 1.81 1.81 0 0 1 1.81-1.81H696.6a1.81 1.81 0 0 1 1.81 1.81 1.811 1.811 0 0 1-1.81 1.81z" class="cls-25" transform="translate(-633.53 -337.293)"></path></g><path id="Trazado_4215" d="M845.891 376.769s41.008 40.907 92.6.659" class="cls-1" transform="translate(-78.038 -103.132)"></path><g id="Grupo_3279" transform="translate(628.726 322.831)"><path id="Trazado_4216" d="M667.712 460.98a26.591 26.591 0 0 0-10.071-5.167s-6.438 1.349-5.723 7.528c0 0 2.026 2.189 12.685 3.45z" class="cls-6" transform="translate(-646.388 -450.56)"></path><path id="Trazado_4217" d="M649.445 460.967c-7.757-7.423-5.6-12.038-3.9-12.65a2.8 2.8 0 0 1 2.833.84 22.533 22.533 0 0 0 6.787 4.283" class="cls-6" transform="translate(-643.916 -448.187)"></path><path id="Trazado_4218" d="M662.239 469.431s-2.868-.278-11.2-.725c0 0-.8-1.584-3.678-2.452 0 0 .76-1.7 2.048-1l2.26.561c.336.047 2.587.419 2.912.5z" class="cls-6" transform="translate(-644.99 -453.445)"></path></g><path id="Trazado_4219" d="M756.657 411.9s-18.459.7-20.7 20.357l-16.567 51.692-47.363-37.286-8.661 8.484 28.853 36.071s13.528 17.587 28.305 20.409c6.478 1.236 12.648-3.638 15.609-9.532l18.442-36.714z" class="cls-27" transform="translate(-21.242 -114.064)"></path><path id="Trazado_4220" d="M771.078 488.167s-21.133-37.724 16.743-83.641-21.336 33.2-16.743 83.641" class="cls-28" transform="translate(-52.93 -106.618)"></path><g id="Grupo_3280" transform="translate(762.322 260.495)"><path id="Trazado_4222" d="M842.866 383.951a26.576 26.576 0 0 1-1.721-11.187s3.313-5.684 8.949-3.053c0 0 1.438 2.613-.732 13.125z" class="cls-6" transform="translate(-838.853 -361.215)"></path><path id="Trazado_4223" d="M849.1 366.187c-4.592-9.7-9.652-9.119-10.772-7.693a2.8 2.8 0 0 0-.1 2.953 22.55 22.55 0 0 1 1.92 7.793" class="cls-6" transform="translate(-837.862 -357.692)"></path><path id="Trazado_4224" d="M852.979 380.811s.642-2.81 2.848-10.852c0 0-1.25-1.26-1.164-4.263 0 0-1.852.185-1.6 1.627l-.181 2.321c-.061.334-.42 2.587-.444 2.922z" class="cls-6" transform="translate(-842.399 -360.182)"></path></g><path id="Trazado_4225" d="M836.574 408.932c-6.852-.091-12.823-.066-18.016.032.085 5.606-6.633 10.447-12.367 9.172-4.083-.681-6.335-4.273-6.384-8.34a96.585 96.585 0 0 0-10.66 1.234s-21.986 31.4-19.49 56.938c3.917 40.075 7.3 65.488 7.3 65.488h48.615l7.375-.015 9.153-59.981 6.471-9.3z" class="cls-27" transform="translate(-54.255 -113.123)"></path><path id="Trazado_4226" d="M866.892 408.947s36.123 1.829 11.577 66.412z" class="cls-27" transform="translate(-84.573 -113.145)"></path><path id="Trazado_4227" d="M812.778 409.967l8.09 8.726s-15.335 2.166-8.09-8.726z" class="cls-6" transform="translate(-67.129 -113.463)"></path><path id="Trazado_4228" d="M835.216 409.023L825.4 418.4s17.061 1.516 9.816-9.377z" class="cls-6" transform="translate(-71.662 -113.169)"></path><path id="Trazado_4229" d="M838.848 390.259l13.5-1.67s21.142 46.772 18.508 76.68c0 0-2.788 13.478-11.09 14.423-.002 0-17.517 5.494-20.918-89.433z" class="cls-28" transform="translate(-75.847 -106.81)"></path></g></g></svg> 